<?xml version="1.0" standalone="no"?><!DOCTYPE svg PUBLIC "-//W3C//DTD SVG 1.1//EN" "http://www.w3.org/Graphics/SVG/1.1/DTD/svg11.dtd"><svg t="1724913502454" class="icon" viewBox="0 0 1024 1024" version="1.1" xmlns="http://www.w3.org/2000/svg" p-id="11089" xmlns:xlink="http://www.w3.org/1999/xlink" width="256" height="256"><path d="M512 40.96a471.04 471.04 0 1 0 471.04 471.04A471.04 471.04 0 0 0 512 40.96z m0 890.88A419.84 419.84 0 1 1 931.84 512 420.2496 420.2496 0 0 1 512 931.84z" p-id="11090" fill="#e6e6e6"></path><path d="M535.9616 501.76V180.8384a25.6 25.6 0 1 0-51.2 0v334.6432a25.6 25.6 0 0 0 11.264 20.48L737.28 700.416a25.6 25.6 0 0 0 28.672-42.3936z" p-id="11091" fill="#e6e6e6"></path></svg>